# xmcd CD database file
#
# Track frame offsets:
#	150
#	15449
#	32979
#	53189
#	94629
#
# Disc length: 1651 seconds
#
# Revision: 0
# Processed by: cddbd v1.5.2PL0 Copyright (c) Steve Scherf et al.
# Submitted via: CDex 1.50
#
DISCID=33067105
DTITLE=Wes Montgomery - COOL JAZZ COLLECTION 12
DYEAR=2008
DGENRE=Jazz
TTITLE0=01-Tequila
TTITLE1=02-Road Song
TTITLE2=03-Airegin
TTITLE3=04-Full House
TTITLE4=05-Besame Mucho
EXTD=YEAR: 2008
EXTT0=
EXTT1=
EXTT2=
EXTT3=
EXTT4=
PLAYORDER=
